# Blender 4.1.1
# www.blender.org
mtllib Pediluve2.mtl
o PediluveGround2
v -10.000000 0.169999 -10.000000
v -10.000000 0.170001 10.000000
v -10.000000 0.160001 10.000000
v -10.000000 0.159999 -10.000000
v 0.000000 0.160001 10.000000
v 0.000000 0.159999 -10.000000
v 0.000000 0.179999 -10.000000
v 0.000000 0.180001 10.000000
v 0.000000 0.180002 20.000000
v 0.000000 0.190002 20.000000
v 0.000000 0.190004 30.000000
v 0.000000 0.200004 30.000000
v 0.000000 0.200004 32.767502
v 0.000000 -0.299696 32.767502
v 0.000000 -0.299704 -32.767502
v 0.000000 0.199996 -32.767502
v 0.000000 0.199996 -30.000000
v 0.000000 0.189996 -30.000000
v 0.000000 0.189998 -20.000000
v 0.000000 0.179998 -20.000000
v -20.000000 0.170001 10.000000
v -20.000000 0.180001 10.000000
v -20.000000 0.179999 -10.000000
v -20.000000 0.169999 -10.000000
v -20.000000 0.179998 -20.000000
v -20.000000 0.180002 20.000000
v -20.000000 0.189998 -20.000000
v -20.000000 0.190002 20.000000
v -30.000000 0.189996 -30.000000
v -30.000000 0.190004 30.000000
v -30.000000 0.200004 30.000000
v -30.000000 0.199996 -30.000000
v -32.767502 -0.599996 32.767502
v -32.767502 -0.600004 -32.767502
v 2.000000 -0.600004 -32.767502
v 2.000000 -0.599996 32.767502
v 2.000000 -0.299704 -32.767502
v 2.000000 -0.299696 32.767502
v -32.767502 0.199996 -32.767502
v -32.767502 0.200004 32.767502
vn 1.0000 -0.0000 -0.0000
vn -0.0000 1.0000 -0.0000
vn -0.0000 -0.0000 -1.0000
vn -0.0000 -0.0000 1.0000
vn -0.0000 -1.0000 -0.0000
vn -1.0000 -0.0000 -0.0000
vt 0.321590 0.633576
vt 0.321590 0.366143
vt 0.455306 0.633576
vt 0.455306 0.366143
vt 0.455306 0.767292
vt 0.742252 0.988676
vt 0.608691 0.988409
vt 0.912777 0.982269
vt 0.875813 0.988809
vt 0.912777 0.988943
vt 0.455306 0.901008
vt 0.455306 0.938015
vt 0.341568 0.988409
vt 0.037483 0.982269
vt 0.208007 0.988676
vt 0.074446 0.988810
vt 0.455306 0.098711
vt 0.455306 0.232427
vt 0.455306 0.061704
vt 0.037483 0.988943
vt 0.187873 0.366143
vt 0.187873 0.633576
vt 0.187873 0.767292
vt 0.187873 0.232427
vt 0.054157 0.098711
vt 0.054157 0.901008
vt 0.513731 0.938015
vt 0.978629 0.938015
vt 0.513731 0.061704
vt 0.978629 0.061704
vt 0.912777 0.974887
vt 0.037483 0.974887
vt 0.912777 0.970876
vt 0.037483 0.970876
vt 0.044291 0.015470
vt 0.044291 0.008048
vt 0.093718 0.015470
vt 0.903517 0.008048
vt 0.903518 0.027819
vt 0.093718 0.027819
vt 0.044291 0.046765
vt 0.093718 0.046765
vt 0.044291 0.054187
vt 0.903518 0.054186
vt 0.903518 0.034416
vt 0.093718 0.034416
vt 0.915084 0.962141
vt 0.037626 0.962141
vt 0.915084 0.951430
vt 0.037626 0.951430
vt 0.017151 0.938015
vt 0.017151 0.061704
vt 0.482049 0.938015
vt 0.482049 0.061704
s 0
usemtl Steel_-_Satin.001
f 1/1/1 2/2/1 4/1/1
f 4/1/1 2/2/1 3/2/1
f 6/3/2 4/1/2 5/4/2
f 5/4/2 4/1/2 3/2/2
f 7/3/1 6/3/1 20/5/1
f 20/6/1 6/7/1 15/8/1
f 20/6/1 15/8/1 18/9/1
f 18/9/1 15/8/1 16/10/1
f 18/11/1 16/12/1 17/11/1
f 6/7/1 5/13/1 15/8/1
f 15/8/1 5/13/1 14/14/1
f 14/14/1 5/13/1 9/15/1
f 14/14/1 9/15/1 11/16/1
f 11/17/1 9/18/1 10/18/1
f 5/4/1 8/4/1 9/18/1
f 12/17/1 13/19/1 11/17/1
f 11/16/1 13/20/1 14/14/1
f 18/11/1 19/5/1 20/5/1
f 21/21/3 22/21/3 2/2/3
f 2/2/3 22/21/3 8/4/3
f 2/2/3 8/4/3 5/4/3
f 5/4/3 3/2/3 2/2/3
f 6/3/4 7/3/4 1/1/4
f 1/1/4 7/3/4 23/22/4
f 1/1/4 23/22/4 24/22/4
f 1/1/4 4/1/4 6/3/4
f 1/1/2 24/22/2 2/2/2
f 2/2/2 24/22/2 21/21/2
f 23/22/2 7/3/2 25/23/2
f 25/23/2 7/3/2 20/5/2
f 8/4/2 22/21/2 9/18/2
f 9/18/2 22/21/2 26/24/2
f 25/23/1 27/23/1 23/22/1
f 23/22/1 27/23/1 28/24/1
f 23/22/1 28/24/1 22/21/1
f 22/21/1 28/24/1 26/24/1
f 21/21/1 24/22/1 22/21/1
f 22/21/1 24/22/1 23/22/1
f 28/24/3 10/18/3 26/24/3
f 26/24/3 10/18/3 9/18/3
f 19/5/4 27/23/4 20/5/4
f 20/5/4 27/23/4 25/23/4
f 10/18/2 28/24/2 11/17/2
f 11/17/2 28/24/2 30/25/2
f 30/25/2 28/24/2 27/23/2
f 30/25/2 27/23/2 29/26/2
f 29/26/2 27/23/2 18/11/2
f 18/11/2 27/23/2 19/5/2
f 31/25/3 12/17/3 30/25/3
f 30/25/3 12/17/3 11/17/3
f 17/11/4 32/26/4 18/11/4
f 18/11/4 32/26/4 29/26/4
f 32/26/1 31/25/1 29/26/1
f 29/26/1 31/25/1 30/25/1
f 34/27/5 35/28/5 33/29/5
f 33/29/5 35/28/5 36/30/5
f 37/31/1 38/32/1 35/33/1
f 35/33/1 38/32/1 36/34/1
f 37/35/3 35/36/3 15/37/3
f 15/37/3 35/36/3 34/38/3
f 15/37/3 34/38/3 39/39/3
f 39/39/3 16/40/3 15/37/3
f 38/41/4 14/42/4 36/43/4
f 36/43/4 14/42/4 33/44/4
f 33/44/4 14/42/4 40/45/4
f 40/45/4 14/42/4 13/46/4
f 40/47/6 39/48/6 33/49/6
f 33/49/6 39/48/6 34/50/6
f 17/11/2 16/12/2 32/26/2
f 32/26/2 16/12/2 39/51/2
f 32/26/2 39/51/2 40/52/2
f 32/26/2 40/52/2 31/25/2
f 31/25/2 40/52/2 13/19/2
f 31/25/2 13/19/2 12/17/2
f 37/53/2 15/12/2 38/54/2
f 38/54/2 15/12/2 14/19/2
